<svg xmlns="http://www.w3.org/2000/svg" viewBox="-0.5 -0.5 16 16" id="Play-Line--Streamline-Mingcute" height="16" width="16"><desc>Play Line Streamline Icon: https://streamlinehq.com</desc><g fill="none" fill-rule="evenodd"><path d="M15 0v15H0V0h15ZM7.870625 14.536249999999999l-0.006874999999999999 0.00125 -0.044375 0.021875000000000002 -0.0125 0.0025 -0.00875 -0.0025 -0.044375 -0.021875000000000002c-0.00625 -0.0025 -0.011875 -0.000625 -0.015 0.003125l-0.0025 0.00625 -0.010625 0.2675 0.003125 0.0125 0.00625 0.008125 0.065 0.04625 0.009375 0.0025 0.0075 -0.0025 0.065 -0.04625 0.0075 -0.01 0.0025 -0.010625 -0.010625 -0.266875c-0.00125 -0.00625 -0.005625 -0.010625 -0.010625 -0.01125Zm0.16562500000000002 -0.07062500000000001 -0.008125 0.00125 -0.115625 0.058124999999999996 -0.00625 0.00625 -0.001875 0.006874999999999999 0.01125 0.26875 0.003125 0.0075 0.005 0.004375 0.12562500000000001 0.058124999999999996c0.0075 0.0025 0.014374999999999999 0 0.018125000000000002 -0.005l0.0025 -0.00875 -0.02125 -0.38375c-0.001875 -0.0075 -0.00625 -0.0125 -0.0125 -0.013749999999999998Zm-0.44687499999999997 0.00125a0.014374999999999999 0.014374999999999999 0 0 0 -0.016875 0.00375l-0.00375 0.00875 -0.02125 0.38375c0 0.0075 0.004375 0.0125 0.010625 0.015l0.009375 -0.00125 0.12562500000000001 -0.058124999999999996 0.00625 -0.005 0.0025 -0.006874999999999999 0.010625 -0.26875 -0.001875 -0.0075 -0.00625 -0.00625 -0.11499999999999999 -0.057499999999999996Z" stroke-width="1"></path><path fill="#ffffff" d="M4.734375 3.5675a39.004374999999996 39.004374999999996 0 0 0 -0.18875 3.929375c0 1.750625 0.10625000000000001 3.123125 0.18875 3.930625a39.195625 39.195625 0 0 0 3.4968749999999997 -1.804375 39.19 39.19 0 0 0 3.31 -2.125625 39.30375 39.30375 0 0 0 -3.309375 -2.128125 39.301249999999996 39.301249999999996 0 0 0 -3.4975 -1.801875ZM3.54375 2.9749999999999996a0.9181250000000001 0.9181250000000001 0 0 1 1.275 -0.735625c0.6637500000000001 0.28375 2.15125 0.9581249999999999 4.03875 2.0475 1.888125 1.09 3.21625 2.041875 3.793125 2.47375 0.49250000000000005 0.369375 0.49375 1.101875 0.000625 1.4725 -0.57125 0.42937500000000006 -1.883125 1.36875 -3.79375 2.4725 -1.9125 1.10375 -3.3825 1.77 -4.04 2.05 -0.56625 0.241875 -1.2 -0.125 -1.27375 -0.735625 -0.08625000000000001 -0.7137499999999999 -0.2475 -2.334375 -0.2475 -4.523125 0 -2.1875 0.16062500000000002 -3.8074999999999997 0.2475 -4.5218750000000005Z" stroke-width="1"></path></g></svg>